# xmcd
#
# Track frame offsets:
# 150
# 20782
# 38979
# 59999
# 77959
# 96247
# 120455
# 142751
# 165574
# 182655
# 198560
# 224451
# 242547
# 263516
# 285054
#
# Disc length: 4017 seconds
#
#
# Revision: 0
# Processed by: cddbd v1.5.2PL0 Copyright (c) Steve Scherf et al.
# Submitted via: FreeRIP 2.944 
#
DISCID=d30faf0f
DTITLE=ALEJANDRO SANZ - LO MEJOR DE
DYEAR=1900
DGENRE=Latin
TTITLE0=PISANDO FUERTE
TTITLE1=SI TU ME MIRAS
TTITLE2=LOS DOS COGIDOS DE LA MANO
TTITLE3=COMO TE HECHO DE MENOS
TTITLE4=QUE NO TE DARIA YO
TTITLE5=Y ¿SI FUERA ELLA?
TTITLE6=MI SOLEDAD Y YO
TTITLE7=LA FUERZA DE CORAZÓN
TTITLE8=¿LO VES?
TTITLE9=TU LETRA PODRE ACARICAR
TTITLE10=CORAZÓN PARTÍO
TTITLE11=QUIERO MORIR EN TU VENENO
TTITLE12=SE ME OLVIDÓ TODO AL VERTE
TTITLE13=AMIGA MÍA
TTITLE14=VIVIENDO DE PRISA
EXTD=
EXTT0=
EXTT1=
EXTT2=
EXTT3=
EXTT4=
EXTT5=
EXTT6=
EXTT7=
EXTT8=
EXTT9=
EXTT10=
EXTT11=
EXTT12=
EXTT13=
EXTT14=
PLAYORDER=
